<svg xmlns="http://www.w3.org/2000/svg"
shape-rendering="geometricPrecision"
width="4000" height="4000" viewBox="0 0 1024 1024">
  <metadata>null</metadata>

<path d="
M 47.358 552.573
C 48.74 547.364 54.33 548.469 58.562 548.468
C 65.71 548.466 72.859 548.419 80.006 548.374
C 83.557 548.351 87.362 548.722 90.879 548.235
C 91.587 547.823 92.022 546.913 92.554 546.304
C 93.903 544.761 95.259 543.21 96.53 541.603
C 100.755 536.255 104.781 530.751 109.062 525.447
C 124.206 506.686 138.949 485.521 163.185 478.165
C 168.062 476.685 173.238 476.064 178.311 475.753
C 178.426 473.334 178.407 470.915 178.417 468.493
C 178.421 467.486 178.674 466.055 178.186 465.155
C 176.565 465.205 174.719 465.036 173.407 463.98
C 170.615 461.732 170.684 457.355 173.68 455.305
C 174.997 454.404 176.741 454.651 178.245 454.641
C 178.561 450.621 178.207 446.582 179.282 442.638
C 180.201 439.264 182.151 436.589 183.365 433.406
C 182.449 432.817 180.683 433.194 179.605 433.179
C 176.419 433.132 172.651 432.245 172.247 428.44
C 172.02 426.297 173.149 423.388 175.369 422.606
C 176.915 422.061 179.086 422.408 180.704 422.419
C 184.472 422.443 188.241 422.447 192.01 422.451
C 203.175 422.464 214.335 422.547 225.502 422.544
C 231.217 422.543 237.353 421.904 242.979 423.046
C 247.212 423.906 251.218 426.046 254.695 428.55
C 262.372 434.08 266.493 442.892 266.259 452.229
C 266.174 455.626 267.455 458.718 264.216 461.068
C 262.153 461.787 259.171 461.206 256.998 461.21
C 251.386 461.22 245.754 460.978 240.148 461.211
C 239.739 463.668 240.089 466.399 240.083 468.892
C 240.069 475.619 240.579 482.677 239.446 489.336
C 235.281 513.813 219.011 532.496 198.134 544.855
C 197.356 549.692 198.256 555.027 198.044 559.939
C 197.751 566.752 197.935 573.607 197.947 580.43
C 197.955 584.475 197.568 588.835 198.105 592.836
C 203.463 592.262 209.116 592.705 214.507 592.698
C 218.028 592.694 222.133 592.176 225.593 592.838
C 230.11 593.702 230.255 600.589 226.59 602.549
C 224.147 603.856 220.183 603.137 217.505 603.15
C 210.672 603.181 203.839 603.136 197.007 603.116
C 172.006 603.042 147.001 603.207 121.998 603.207
C 115.667 603.207 109.335 603.182 103.003 603.182
C 99.796 603.182 96.359 603.571 93.179 603.147
C 89.625 602.673 87.796 598.159 89.649 595.195
C 92.111 591.259 99.148 592.725 103.121 592.704
C 112.251 592.657 121.378 592.591 130.508 592.604
C 133.175 592.608 135.842 592.617 138.509 592.63
C 139.316 592.634 140.801 592.917 141.515 592.542
C 141.329 581.376 142.075 570.102 141.672 558.933
C 134.702 558.403 127.494 558.922 120.5 558.907
C 112.022 558.888 103.482 558.437 95.01 558.868
C 93.368 560.396 91.96 562.462 90.425 564.141
C 87.98 566.816 85.283 569.289 82.558 571.676
C 77.495 576.111 71.417 579.303 65.403 582.229
C 63.347 583.23 60.813 584.928 58.467 585.056
C 55.183 585.234 52.453 581.195 53.607 578.145
C 54.921 574.674 60.212 573.424 63.298 572.142
C 68.173 570.117 72.483 566.599 76.402 563.153
C 77.747 561.97 79.769 560.551 80.557 558.918
C 72.145 558.014 63.213 558.792 54.745 558.759
C 53.453 558.754 51.956 558.955 50.69 558.671
C 48.161 558.102 46.969 554.794 47.358 552.573 Z
M 216.998 433.219
C 212.837 433.302 208.637 433.048 204.467 433.053
C 202.26 433.055 199.802 432.979 197.75 433.899
C 189.736 437.488 188.71 445.851 188.743 453.537
C 188.797 466.49 190.38 480.205 186.459 492.755
C 180.38 512.211 162.164 527.62 143.334 534.088
C 138.711 535.676 133.962 536.549 129.149 537.316
C 123.254 538.256 117.472 539.124 111.502 538.381
C 109.7 539.671 107.922 542.915 106.719 544.798
C 105.4 545.816 104.612 547.348 103.758 548.733
C 104.115 549.149 105.937 548.834 106.51 548.836
C 109.176 548.844 111.842 548.809 114.508 548.786
C 125.472 548.692 136.503 549.25 147.454 548.609
C 180.359 546.684 217.668 529.998 227.526 495.798
C 230.016 487.162 229.76 478.39 229.756 469.501
C 229.75 457.37 229.416 445.21 229.729 433.086
C 225.646 432.518 221.093 432.855 216.998 433.219 Z
M 120.262 527.724
C 120.965 528.12 122.197 527.829 123.004 527.827
C 125.354 527.821 127.584 527.679 129.884 527.186
C 137.742 525.501 144.988 522.692 151.943 518.67
C 154.207 517.361 158.335 515.388 159.431 512.871
C 156.589 512.08 152.936 512.707 149.998 512.714
C 146.166 512.723 142.333 512.698 138.501 512.684
C 136.583 512.676 134.418 512.375 132.542 512.814
C 131.022 514.078 129.975 516.002 128.727 517.534
C 125.928 520.968 123.188 524.394 120.262 527.724 Z
M 142.915 502.141
C 142.842 502.312 142.77 502.482 142.698 502.653
C 146.21 503.085 149.962 502.757 153.503 502.76
C 158.862 502.764 164.256 502.939 169.61 502.688
C 170.641 502.225 171.406 500.521 172.043 499.606
C 174.136 496.599 175.917 493.149 176.825 489.584
C 177.074 488.603 177.651 487.149 177.228 486.175
C 164.143 485.749 151.993 493.437 142.915 502.141 Z
M 151.527 559.124
C 151.529 570.277 152.227 581.557 151.624 592.709
C 155.617 592.398 160.496 593.523 164.347 592.451
C 164.892 587.189 164.614 581.788 164.602 576.504
C 164.588 569.915 164.746 563.296 164.604 556.714
C 161.93 556.443 158.886 557.434 156.223 557.759
C 154.736 557.94 152.95 557.881 151.572 558.477
C 151.557 558.693 151.542 558.909 151.527 559.124 Z
M 174.517 555.124
C 174.945 567.527 175.132 580.255 174.715 592.664
C 179.073 592.405 183.468 592.934 187.822 592.658
C 188.178 591.279 187.856 589.429 187.853 587.995
C 187.846 584.663 187.833 581.331 187.822 577.999
C 187.801 572.001 187.784 566.001 187.804 560.002
C 187.816 556.702 188.161 553.251 187.757 549.972
C 183.322 551.104 178.679 552.597 174.501 554.495
C 174.506 554.704 174.512 554.914 174.517 555.124 Z
M 239.953 434.628
C 239.48 439.874 240.17 445.185 240.082 450.434
C 240.897 451.043 243.012 450.605 244.007 450.605
C 247.71 450.604 251.935 451.214 255.575 450.552
C 256.648 449.082 255.071 445.408 254.442 443.959
C 252.079 438.508 246.335 433.14 239.985 433.423
C 240.027 434.35 240.063 433.951 239.953 434.628 Z"
opacity="1" fill="rgb(126,58,29)" fill-rule="evenodd" />
<path d="
M 106.719 544.798
C 109.031 546.756 113.526 545.988 116.386 545.809
C 125.133 545.263 133.359 544.349 141.839 542.101
C 168.908 534.924 192.053 515.351 199.451 487.804
C 201.393 480.571 202.414 473.342 202.828 465.878
C 203.229 458.632 202.959 451.156 206.175 444.445
C 208.422 439.758 212.853 436.139 216.998 433.219
C 221.093 432.855 225.646 432.518 229.729 433.086
C 229.416 445.21 229.75 457.37 229.756 469.501
C 229.76 478.39 230.016 487.162 227.526 495.798
C 217.668 529.998 180.359 546.684 147.454 548.609
C 136.503 549.25 125.472 548.692 114.508 548.786
C 111.842 548.809 109.176 548.844 106.51 548.836
C 105.937 548.834 104.115 549.149 103.758 548.733
C 104.612 547.348 105.4 545.816 106.719 544.798 Z
M 214.395 444.056
C 212.17 450.829 223.139 454.196 225.049 447.388
C 226.844 440.987 216.626 437.263 214.395 444.056 Z"
opacity="1" fill="rgb(239,138,76)" fill-rule="evenodd" />
<path d="
M 216.998 433.219
C 212.853 436.139 208.422 439.758 206.175 444.445
C 202.959 451.156 203.229 458.632 202.828 465.878
C 202.414 473.342 201.393 480.571 199.451 487.804
C 192.053 515.351 168.908 534.924 141.839 542.101
C 133.359 544.349 125.133 545.263 116.386 545.809
C 113.526 545.988 109.031 546.756 106.719 544.798
C 107.922 542.915 109.7 539.671 111.502 538.381
C 117.472 539.124 123.254 538.256 129.149 537.316
C 133.962 536.549 138.711 535.676 143.334 534.088
C 162.164 527.62 180.38 512.211 186.459 492.755
C 190.38 480.205 188.797 466.49 188.743 453.537
C 188.71 445.851 189.736 437.488 197.75 433.899
C 199.802 432.979 202.26 433.055 204.467 433.053
C 208.637 433.048 212.837 433.302 216.998 433.219 Z"
opacity="1" fill="rgb(231,110,51)" fill-rule="evenodd" />
<path d="
M 120.262 527.724
C 123.188 524.394 125.928 520.968 128.727 517.534
C 129.975 516.002 131.022 514.078 132.542 512.814
C 134.418 512.375 136.583 512.676 138.501 512.684
C 142.333 512.698 146.166 512.723 149.998 512.714
C 152.936 512.707 156.589 512.08 159.431 512.871
C 158.335 515.388 154.207 517.361 151.943 518.67
C 144.988 522.692 137.742 525.501 129.884 527.186
C 127.584 527.679 125.354 527.821 123.004 527.827
C 122.197 527.829 120.965 528.12 120.262 527.724 Z"
opacity="1" fill="rgb(237,127,50)" fill-rule="evenodd" />
<path d="
M 142.915 502.141
C 151.993 493.437 164.143 485.749 177.228 486.175
C 177.651 487.149 177.074 488.603 176.825 489.584
C 175.917 493.149 174.136 496.599 172.043 499.606
C 171.406 500.521 170.641 502.225 169.61 502.688
C 164.256 502.939 158.862 502.764 153.503 502.76
C 149.962 502.757 146.21 503.085 142.698 502.653
C 142.77 502.482 142.842 502.312 142.915 502.141 Z"
opacity="1" fill="rgb(246,175,87)" fill-rule="evenodd" />
<path d="
M 214.395 444.056
C 216.626 437.263 226.844 440.987 225.049 447.388
C 223.139 454.196 212.17 450.829 214.395 444.056 Z"
opacity="1" fill="rgb(127,61,31)" fill-rule="evenodd" />
<path d="
M 239.953 434.628
C 240.063 433.951 240.027 434.35 239.985 433.423
C 246.335 433.14 252.079 438.508 254.442 443.959
C 255.071 445.408 256.648 449.082 255.575 450.552
C 251.935 451.214 247.71 450.604 244.007 450.605
C 243.012 450.605 240.897 451.043 240.082 450.434
C 240.17 445.185 239.48 439.874 239.953 434.628 Z"
opacity="1" fill="rgb(240,140,72)" fill-rule="evenodd" />
<path d="
M 297.346 474.058
C 298.907 469.076 302.961 469.422 307.275 469.392
C 311.336 469.365 314.544 469.089 316.859 472.987
C 318.213 475.268 317.537 479.264 317.604 481.867
C 317.794 489.253 318.207 496.876 317.6 504.245
C 319.483 503.64 321.389 501.64 323.215 500.705
C 327.805 498.355 332.797 497.037 337.963 496.855
C 355.101 496.251 369.289 508.537 374.222 524.442
C 376.105 530.516 375.693 537.215 375.679 543.499
C 375.661 551.838 375.519 560.18 375.579 568.519
C 375.605 572.072 376.064 576.436 372.432 578.519
C 370.847 579.428 368.775 579.355 366.999 579.392
C 362.766 579.482 355.947 580.226 354.973 574.523
C 354.313 570.659 354.797 566.413 354.809 562.504
C 354.832 554.835 354.865 547.165 354.878 539.496
C 354.883 536.496 354.93 533.559 354.238 530.623
C 352.808 524.553 348.218 519.702 342.361 517.737
C 332.14 514.308 321.917 520.856 318.845 530.721
C 317.669 534.498 318.098 538.592 318.102 542.498
C 318.108 549.165 318.089 555.831 318.094 562.497
C 318.097 567.242 320.069 576.153 314.856 578.746
C 312.755 579.792 310.165 579.495 307.895 579.441
C 303.766 579.342 298.877 580.084 297.447 575.004
C 296.515 571.695 297.196 567.438 297.171 564.012
C 297.117 556.344 297.149 548.677 297.169 541.009
C 297.21 526.009 297.164 511.008 297.138 496.008
C 297.13 491.342 297.179 486.676 297.158 482.01
C 297.146 479.394 296.791 476.633 297.346 474.058 Z"
opacity="1" fill="rgb(208,77,34)" fill-rule="evenodd" />
<path d="
M 384.439 533.6
C 385.63 527.407 386.933 521.916 390.2 516.406
C 398.15 503 414.655 495.145 430.01 497.439
C 434.145 498.057 438.271 499.507 441.816 501.728
C 443.124 502.547 444.428 503.405 445.638 504.364
C 446.202 504.812 446.962 505.69 447.661 505.888
C 447.711 503.293 448.186 501.01 450.439 499.378
C 452.231 498.08 454.464 498.354 456.547 498.25
C 460.797 498.036 466.255 497.619 467.681 502.751
C 467.89 503.503 467.916 504.297 467.919 505.073
C 467.967 520.712 467.747 536.36 467.739 552.001
C 467.737 556.927 467.741 561.852 467.787 566.778
C 467.812 569.384 468.204 572.33 467.599 574.884
C 466.718 578.602 463.402 579.168 460.216 579.446
C 456.2 579.797 450.447 580.06 448.232 575.892
C 447.605 574.713 447.641 573.354 447.44 572.072
C 445.85 572.759 444.298 574.608 442.657 575.485
C 437.986 577.98 432.587 580.038 427.256 580.331
C 423.568 580.534 419.765 580.409 416.161 579.532
C 412.096 578.543 407.916 577.149 404.33 574.951
C 390.21 566.294 382.771 549.937 384.439 533.6 Z
M 404.422 535.086
C 403.964 537.676 404.143 540.571 404.567 543.152
C 406.442 554.58 418.585 562.145 429.722 560.192
C 435.558 559.169 440.977 555.474 444.162 550.518
C 445.736 548.068 446.95 545.296 447.459 542.416
C 450.727 523.936 428.583 509.796 413.297 520.775
C 411.239 522.253 409.336 524.076 407.923 526.187
C 406.165 528.814 404.971 531.981 404.422 535.086 Z"
opacity="1" fill="rgb(216,90,37)" fill-rule="evenodd" />
<path d="
M 475.375 503.583
C 475.784 501.879 476.435 500.187 477.932 499.147
C 479.769 497.872 481.994 497.974 484.127 497.933
C 488.302 497.852 492.886 497.253 494.988 501.661
C 496.877 505.624 498.096 509.949 499.629 514.057
C 502.591 521.996 505.588 529.952 508.182 538.02
C 509.226 541.269 510.41 544.529 511.708 547.685
C 511.969 548.321 512.253 550.324 512.855 550.592
C 516.511 539.489 520.402 528.447 524.07 517.34
C 525.335 513.509 526.609 509.694 527.939 505.886
C 528.578 504.059 529.098 501.731 530.3 500.185
C 533.205 496.448 541.994 496.689 545.787 498.928
C 547.282 499.811 547.546 501.371 548.112 502.881
C 549.319 506.096 550.468 509.33 551.678 512.545
C 556.377 525.024 560.763 537.655 565.526 550.09
C 566.241 549.477 566.372 547.984 566.704 547.118
C 567.86 544.097 568.86 541.019 569.98 537.983
C 574.112 526.783 577.969 515.418 581.861 504.128
C 582.624 501.917 583.407 499.737 585.5 498.433
C 586.719 497.673 588.314 497.696 589.698 497.629
C 593.054 497.466 597.216 497.236 599.956 499.563
C 602.999 502.147 602.568 505.729 601.295 509.096
C 599.482 513.888 597.252 518.569 595.621 523.424
C 591.188 536.614 585.394 549.352 580.739 562.462
C 579.354 566.362 578.119 570.39 576.312 574.124
C 575.553 575.692 574.809 577.403 573.413 578.516
C 572.247 579.446 570.665 579.547 569.231 579.645
C 566.331 579.843 562.948 580.142 560.074 579.674
C 555.092 578.862 554.207 572.419 552.795 568.631
C 549.348 559.378 545.93 550.123 542.521 540.857
C 541.651 538.491 540.891 536.077 540 533.723
C 539.706 532.945 539.296 531.514 538.593 531.115
C 537.96 535.63 535.6 540.293 534.005 544.562
C 531.133 552.246 528.392 560.013 525.715 567.767
C 524.389 571.61 523.4 577.934 518.876 579.344
C 517.358 579.817 515.686 579.68 514.116 579.693
C 510.613 579.722 506.332 580.494 503.665 577.737
C 501.55 575.552 500.656 572.469 499.7 569.663
C 498.572 566.351 497.376 563.06 496.171 559.775
C 491.573 547.231 486.461 534.831 481.687 522.35
C 480.139 518.304 478.441 514.314 476.942 510.251
C 476.155 508.12 475.102 505.901 475.375 503.583 Z"
opacity="1" fill="rgb(227,106,41)" fill-rule="evenodd" />
<path d="
M 609.443 476.101
C 609.572 475.247 609.698 474.401 610.047 473.604
C 612.14 468.819 616.633 469.253 621.052 469.156
C 624.669 469.076 628.445 469.672 629.617 473.75
C 630.012 475.122 629.759 476.869 629.763 478.284
C 629.77 481.034 629.777 483.783 629.785 486.532
C 629.814 496.523 629.727 506.511 629.816 516.501
C 629.842 519.33 629.81 522.161 629.796 524.99
C 629.79 526.279 629.555 527.771 629.845 529.028
C 632.552 527.679 635.068 524.294 637.218 522.174
C 642.781 516.691 648.23 511.092 653.774 505.59
C 656.24 503.144 658.918 499.645 662.124 498.154
C 663.651 497.445 665.859 497.791 667.506 497.786
C 672.62 497.77 678.067 498.203 678.69 504.472
C 678.783 505.414 679.041 506.821 678.59 507.705
C 677.843 509.165 676.193 510.424 675.053 511.574
C 672.563 514.085 670.124 516.618 667.477 518.965
C 662.09 523.744 657.499 529.552 651.85 534.019
C 651.905 534.919 652.972 535.757 653.54 536.443
C 655.176 538.417 656.832 540.379 658.457 542.363
C 663.07 547.993 668.04 553.555 673.063 558.826
C 675.81 561.708 679.767 564.678 681.315 568.44
C 682.723 571.865 681.522 577.937 677.534 579.256
C 675.383 579.968 672.705 579.651 670.471 579.651
C 669.034 579.652 667.143 579.967 665.774 579.491
C 664.637 579.096 663.614 577.83 662.79 576.999
C 660.713 574.903 658.948 572.546 657.086 570.266
C 653.274 565.596 649.146 561.141 645.229 556.553
C 642.754 553.653 640.556 550.198 637.546 547.818
C 636.642 548.059 635.75 549.335 635.082 550.009
C 633.301 551.803 631.263 553.383 629.639 555.328
C 629.335 556.876 629.581 558.679 629.587 560.264
C 629.601 563.566 629.623 566.867 629.611 570.169
C 629.604 572.351 630.013 574.893 628.749 576.818
C 626.936 579.577 623.707 579.54 620.724 579.533
C 616.694 579.524 611.264 580.209 609.887 575.222
C 608.884 571.594 609.388 567.223 609.377 563.494
C 609.357 556.326 609.411 549.159 609.398 541.992
C 609.371 526.034 609.455 510.069 609.549 494.119
C 609.584 488.151 609.101 482.048 609.443 476.101 Z"
opacity="1" fill="rgb(232,115,42)" fill-rule="evenodd" />
<path d="
M 689.846 503.046
C 691.68 498.017 696.458 497.578 701.143 497.971
C 703.118 498.137 705.295 498.312 706.916 499.587
C 708.901 501.15 709.14 503.318 709.976 505.518
C 718.336 498.763 729.922 493.765 740.755 497.975
C 746.536 500.222 750.715 504.271 754.932 508.635
C 756.817 507.56 758.272 505.41 759.941 503.998
C 763.594 500.906 768.024 498.795 772.691 497.792
C 789.78 494.12 806.349 502.673 813.449 518.621
C 816.198 524.795 816.84 531.472 816.869 538.151
C 816.913 548.102 816.757 558.051 816.772 567.999
C 816.777 571.752 817.448 576.74 813.323 578.747
C 811.623 579.574 809.309 579.275 807.472 579.292
C 805.302 579.313 802.397 579.756 800.324 578.992
C 795.214 577.107 796.164 570.077 796.174 565.881
C 796.181 562.589 796.17 559.296 796.173 556.004
C 796.175 553.504 796.18 551.003 796.187 548.503
C 796.217 538.309 797.995 524.414 787.335 518.586
C 785.998 517.855 784.559 517.37 783.066 517.07
C 781.135 516.683 779.068 516.671 777.119 516.923
C 775.621 517.116 774.211 517.572 772.82 518.146
C 762.223 522.518 763.334 535.162 763.398 544.499
C 763.415 547 763.414 549.5 763.414 552.001
C 763.415 555.335 763.427 558.669 763.447 562.002
C 763.47 566.031 764.139 570.627 763.278 574.579
C 762.854 576.529 761.446 578.597 759.411 579.113
C 757.699 579.546 755.825 579.346 754.075 579.358
C 751.724 579.374 748.936 579.843 746.656 579.141
C 744.967 578.621 743.573 576.543 743.057 574.942
C 741.89 571.32 742.791 566.279 742.799 562.502
C 742.806 559.166 742.835 555.83 742.848 552.494
C 742.865 548.029 742.877 543.564 742.852 539.099
C 742.837 536.267 743.03 533.334 742.581 530.527
C 741.7 525.03 738.215 520.537 733.282 518.073
C 731.639 517.252 729.828 516.724 728.005 516.497
C 719.593 515.447 713.606 521.051 710.917 528.555
C 709.633 532.139 710.238 536.757 710.233 540.502
C 710.224 548.169 710.244 555.835 710.259 563.502
C 710.267 567.835 711.733 574.526 708.123 577.796
C 706.624 579.154 704.856 579.256 702.929 579.364
C 698.873 579.591 691.693 580.621 690.041 575.479
C 689.236 572.972 689.59 569.752 689.618 567.154
C 689.669 562.271 689.631 557.387 689.628 552.504
C 689.62 541.334 689.531 530.163 689.581 518.993
C 689.603 513.94 688.703 507.966 689.846 503.046 Z"
opacity="1" fill="rgb(237,132,57)" fill-rule="evenodd" />
<path d="
M 825.447 532.597
C 827.295 524.325 829.816 516.798 835.575 510.338
C 848.435 495.911 872.933 491.343 887.653 505.754
C 887.952 505.864 888.414 503.967 888.553 503.627
C 889.163 502.13 889.658 500.664 891.016 499.664
C 893.757 497.643 898.983 498.125 902.192 498.46
C 903.514 498.598 904.783 498.793 905.862 499.639
C 910.154 503.005 908.734 510.809 908.737 515.613
C 908.745 530.386 908.791 545.159 908.824 559.932
C 908.831 563.137 908.846 566.342 908.872 569.546
C 908.895 572.342 908.94 575.237 906.774 577.344
C 904.722 579.341 902.482 579.259 899.787 579.272
C 896.007 579.291 892.542 579.435 889.49 576.903
C 888.422 576.017 888.034 575.016 887.86 573.663
C 887.797 573.175 887.949 571.245 887.286 571.355
C 885.246 574.557 881.772 576.118 878.34 577.435
C 871.575 580.031 864.385 580.997 857.23 579.521
C 836.24 575.192 822.949 553.368 825.447 532.597 Z
M 845.942 534.591
C 845.463 537.534 845.706 540.69 846.385 543.583
C 847.037 546.357 848.22 549.043 849.925 551.332
C 851.502 553.448 853.41 555.271 855.636 556.696
C 868.716 565.069 886.112 556.469 888.553 541.414
C 890.8 527.555 876.875 515.047 863.485 516.899
C 857.554 517.72 852.577 521.397 849.25 526.253
C 847.572 528.701 846.42 531.663 845.942 534.591 Z"
opacity="1" fill="rgb(236,140,64)" fill-rule="evenodd" />
<path d="
M 919.845 475.579
C 920.122 473.984 920.784 472.411 921.666 471.059
C 928.699 460.265 947.44 466.699 945.007 479.86
C 942.64 492.66 923.015 493.628 920.002 480.738
C 919.615 479.082 919.553 477.256 919.845 475.579 Z"
opacity="1" fill="rgb(250,189,97)" fill-rule="evenodd" />
<path d="
M 922.485 556.121
C 922.756 542.26 922.595 528.365 922.589 514.497
C 922.586 509.601 921.063 502.461 925.906 499.308
C 927.327 498.383 929.471 498.657 931.087 498.642
C 935.531 498.599 941.203 498.231 942.607 503.685
C 943.035 505.346 942.795 507.294 942.807 508.997
C 942.831 512.163 942.847 515.33 942.857 518.496
C 942.892 528.996 942.837 539.497 942.825 549.998
C 942.819 555.332 942.879 560.665 942.891 565.999
C 942.897 568.615 943.317 571.655 942.695 574.212
C 941.379 579.617 936.281 579.35 931.809 579.334
C 928.689 579.324 926.018 579.668 923.903 576.922
C 922.35 574.906 922.587 572.317 922.57 569.911
C 922.537 565.313 922.395 560.719 922.485 556.121 Z"
opacity="1" fill="rgb(237,144,68)" fill-rule="evenodd" />
<path d="
M 956.901 473.552
C 957.391 472.035 958.894 470.226 960.369 469.588
C 961.904 468.923 963.904 469.081 965.544 469.067
C 969.808 469.033 975.583 468.754 976.933 473.987
C 977.647 476.756 977.161 480.155 977.16 483.001
C 977.157 488.668 977.186 494.335 977.194 500.002
C 977.221 518.335 977.241 536.668 977.241 555.001
C 977.241 559.168 977.233 563.335 977.245 567.502
C 977.251 569.484 977.585 571.735 977.144 573.679
C 976.578 576.177 974.417 578.815 971.785 579.136
C 966.554 579.775 959.312 580.705 957.103 574.799
C 956.128 572.191 956.704 568.737 956.705 566
C 956.707 559.833 956.695 553.666 956.705 547.498
C 956.735 530.331 956.762 513.163 956.764 495.996
C 956.765 491.036 956.817 486.071 956.735 481.112
C 956.696 478.8 956.18 475.784 956.901 473.552 Z"
opacity="1" fill="rgb(245,170,86)" fill-rule="evenodd" />

</svg>